<svg xmlns="http://www.w3.org/2000/svg" class="pygal-chart" viewBox="0 0 800 600" style="background-color:#f9f9f9;-webkit-user-select:none;-webkit-font-smoothing:antialiased;font-family:Consolas,&quot;Deja Vu Sans Mono&quot;,&quot;Bitstream Vera Sans Mono&quot;,&quot;Courier New&quot;,monospace"><defs><style>#chart-81fc9f2c-53b3-4e9a-b1d3-1517075dd4cb .title{font-family:Consolas,&quot;Deja Vu Sans Mono&quot;,&quot;Bitstream Vera Sans Mono&quot;,&quot;Courier New&quot;,monospace;font-size:16px;fill:#000}#chart-81fc9f2c-53b3-4e9a-b1d3-1517075dd4cb .axis text,#chart-81fc9f2c-53b3-4e9a-b1d3-1517075dd4cb .axis text.major{font-family:Consolas,&quot;Deja Vu Sans Mono&quot;,&quot;Bitstream Vera Sans Mono&quot;,&quot;Courier New&quot;,monospace;font-size:10px}#chart-81fc9f2c-53b3-4e9a-b1d3-1517075dd4cb circle,#chart-81fc9f2c-53b3-4e9a-b1d3-1517075dd4cb path{-webkit-transition:150ms;-moz-transition:150ms;transition:150ms}#chart-81fc9f2c-53b3-4e9a-b1d3-1517075dd4cb .axis .guides:hover text,#chart-81fc9f2c-53b3-4e9a-b1d3-1517075dd4cb .axis text.major,#chart-81fc9f2c-53b3-4e9a-b1d3-1517075dd4cb .series text{fill:#000}#chart-81fc9f2c-53b3-4e9a-b1d3-1517075dd4cb .axis .line,#chart-81fc9f2c-53b3-4e9a-b1d3-1517075dd4cb .axis.y .guides:hover .guide.line{stroke:#000}#chart-81fc9f2c-53b3-4e9a-b1d3-1517075dd4cb .axis .guide.line{stroke:rgba(0,0,0,.54)}#chart-81fc9f2c-53b3-4e9a-b1d3-1517075dd4cb .reactive{fill-opacity:.7;stroke-opacity:.8;stroke-width:1}#chart-81fc9f2c-53b3-4e9a-b1d3-1517075dd4cb .axis .major.line{stroke:rgba(0,0,0,.87)}#chart-81fc9f2c-53b3-4e9a-b1d3-1517075dd4cb .color-0,#chart-81fc9f2c-53b3-4e9a-b1d3-1517075dd4cb .color-1{stroke:#3f51b5;fill:#3f51b5}#chart-81fc9f2c-53b3-4e9a-b1d3-1517075dd4cb .axis.x text,#chart-81fc9f2c-53b3-4e9a-b1d3-1517075dd4cb .title{text-anchor:middle}#chart-81fc9f2c-53b3-4e9a-b1d3-1517075dd4cb .guide.line{fill:none}#chart-81fc9f2c-53b3-4e9a-b1d3-1517075dd4cb .axis.x:not(.web) text[transform]{text-anchor:start}#chart-81fc9f2c-53b3-4e9a-b1d3-1517075dd4cb .axis.x:not(.web) text[transform].backwards{text-anchor:end}#chart-81fc9f2c-53b3-4e9a-b1d3-1517075dd4cb .axis.y text{text-anchor:end}#chart-81fc9f2c-53b3-4e9a-b1d3-1517075dd4cb .axis.y text[transform].backwards{text-anchor:start}#chart-81fc9f2c-53b3-4e9a-b1d3-1517075dd4cb .axis .guide.line{stroke-dasharray:4,4;stroke:#000}#chart-81fc9f2c-53b3-4e9a-b1d3-1517075dd4cb .axis .major.guide.line{stroke-dasharray:6,6;stroke:#000}#chart-81fc9f2c-53b3-4e9a-b1d3-1517075dd4cb .vertical .axis.x .guide.line{opacity:0}#chart-81fc9f2c-53b3-4e9a-b1d3-1517075dd4cb .vertical .axis.always_show .guide.line{opacity:1!important}#chart-81fc9f2c-53b3-4e9a-b1d3-1517075dd4cb .axis .guides:hover text,#chart-81fc9f2c-53b3-4e9a-b1d3-1517075dd4cb .axis.x .guides:hover .guide.line,#chart-81fc9f2c-53b3-4e9a-b1d3-1517075dd4cb .axis.y .guides:hover .guide.line{opacity:1}#chart-81fc9f2c-53b3-4e9a-b1d3-1517075dd4cb .subtle-fill{fill-opacity:.2}#chart-81fc9f2c-53b3-4e9a-b1d3-1517075dd4cb text{stroke:none!important}.axis text{font-size:9px!important}</style></defs><g class="graph custombox-graph vertical" style="fill:rgba(0,0,0,.87)"><path class="background" style="fill:#f9f9f9" d="M0 0h800v600H0z"/><g class="plot"><path class="background" style="fill:#fff" d="M0 0h712v426H0z" transform="translate(68 46)"/><g class="axis y always_show"><path d="M68 472h712" class="line"/><g class="guides"><path d="M68 463.808h712" class="guide line"/><text x="-5" y="421.308" transform="translate(68 46)">12</text></g><g class="guides"><path d="M68 440.062h712" class="guide line"/><text x="-5" y="397.562" transform="translate(68 46)">16</text></g><g class="guides"><path d="M68 416.316h712" class="major guide line"/><text x="-5" y="373.816" class="major" transform="translate(68 46)">20</text></g><g class="guides"><path d="M68 392.57h712" class="guide line"/><text x="-5" y="350.07" transform="translate(68 46)">24</text></g><g class="guides"><path d="M68 368.824h712" class="guide line"/><text x="-5" y="326.324" transform="translate(68 46)">28</text></g><g class="guides"><path d="M68 345.079h712" class="guide line"/><text x="-5" y="302.579" transform="translate(68 46)">32</text></g><g class="guides"><path d="M68 321.333h712" class="guide line"/><text x="-5" y="278.833" transform="translate(68 46)">36</text></g><g class="guides"><path d="M68 297.587h712" class="major guide line"/><text x="-5" y="255.087" class="major" transform="translate(68 46)">40</text></g><g class="guides"><path d="M68 273.841h712" class="guide line"/><text x="-5" y="231.341" transform="translate(68 46)">44</text></g><g class="guides"><path d="M68 250.095h712" class="guide line"/><text x="-5" y="207.595" transform="translate(68 46)">48</text></g><g class="guides"><path d="M68 226.35h712" class="guide line"/><text x="-5" y="183.849" transform="translate(68 46)">52</text></g><g class="guides"><path d="M68 202.604h712" class="guide line"/><text x="-5" y="160.104" transform="translate(68 46)">56</text></g><g class="guides"><path d="M68 178.858h712" class="major guide line"/><text x="-5" y="136.358" class="major" transform="translate(68 46)">60</text></g><g class="guides"><path d="M68 155.112h712" class="guide line"/><text x="-5" y="112.612" transform="translate(68 46)">64</text></g><g class="guides"><path d="M68 131.366h712" class="guide line"/><text x="-5" y="88.866" transform="translate(68 46)">68</text></g><g class="guides"><path d="M68 107.62h712" class="guide line"/><text x="-5" y="65.12" transform="translate(68 46)">72</text></g><g class="guides"><path d="M68 83.875h712" class="guide line"/><text x="-5" y="41.375" transform="translate(68 46)">76</text></g><g class="guides"><path d="M68 60.129h712" class="major guide line"/><text x="-5" y="17.629" class="major" transform="translate(68 46)">80</text></g></g><g class="axis x"><path d="M68 46v426" class="line"/><g class="guides"><path d="M252.846 46v426" class="guide line"/><text x="184.846" y="441" class="backwards" transform="rotate(-90 241.846 430)">test_sjt_new</text></g><g class="guides"><path d="M595.154 46v426" class="guide line"/><text x="527.154" y="441" class="backwards" transform="rotate(-90 584.154 430)">test_sjt_old</text></g></g><g class="series serie-0 color-0"><g class="boxes"><g class="box" transform="translate(68 46)"><path stroke-width="3" d="M109.538 415.108h150.616m-225.924-.587h301.232m-225.924-.961h150.616" class="reactive tooltip-trigger"/><path stroke-width="2" d="M184.846 415.108v-.321m0-1.227v.879" class="reactive tooltip-trigger"/><path class="subtle-fill reactive tooltip-trigger" d="M34.231 414.439h301.231v.348H34.231z"/><circle cx="184.846" cy="415.108" r="3" class="subtle-fill reactive tooltip-trigger"/><circle cx="184.846" cy="413.56" r="3" class="subtle-fill reactive tooltip-trigger"/></g></g></g><g class="series serie-1 color-1"><g class="boxes"><g class="box" transform="translate(68 46)"><path stroke-width="3" d="M451.846 16.631h150.616M376.538 15.21H677.77m-225.924-1.303h150.616" class="reactive tooltip-trigger"/><path stroke-width="2" d="M527.154 16.631v-.641m0-2.083v1.043" class="reactive tooltip-trigger"/><path class="subtle-fill reactive tooltip-trigger" d="M376.538 14.95h301.231v1.04H376.538z"/><circle cx="527.154" cy="16.631" r="3" class="subtle-fill reactive tooltip-trigger"/><circle cx="527.154" cy="13.907" r="3" class="subtle-fill reactive tooltip-trigger"/></g></g></g></g><g class="titles"><text x="400" y="26" class="title plot_title">Speed in Milliseconds (ms)</text><text x="424" y="580" class="title">Trial</text><text y="285" class="title" transform="rotate(-90 0 259)">Duration</text></g></g></svg>